<svg id="Layer_1" enable-background="new 0 0 512 512" height="512" viewBox="0 0 512 512" width="512" xmlns="http://www.w3.org/2000/svg"><g><path d="m244.999 11.001c-58.691 0-112.554 20.647-154.744 55.062l-7.763 373.263c34.108 30.257 76.712 51.141 123.789 58.616l98.574-4.322c106.374-26.711 185.142-122.961 185.142-237.62 0-135.309-109.689-244.999-244.998-244.999z" fill="#746bf9"/><path d="m512 366.684v-268.841c0-17.552-14.228-31.78-31.78-31.78h-389.965c-55.077 44.926-90.255 113.32-90.255 189.937 0 39.831 9.514 77.437 26.379 110.683h485.621z" fill="#47477f"/><g><path d="m98.045 102.363c0-17.584 12.336-32.418 28.779-36.299h-36.57c-55.076 44.925-90.254 113.319-90.254 189.936 0 39.831 9.514 77.437 26.379 110.683h71.666z" fill="#3b3868"/></g><g><path d="m98.045 102.363c0-1.787.135-3.543.381-5.264h-39.893c-10.39 12.18-19.604 25.391-27.474 39.457h66.986z" fill="#3b3868"/></g><path d="m31.035 134.257h449.929v232.427h-449.929z" fill="#42c3fc"/><g><path d="m31.036 134.256h67.01v232.427h-67.01z" fill="#1aa9e8"/></g><path d="m480.22 88.89h-414.36c-4.912 5.263-9.601 10.736-14.039 16.416h420.935v261.377c0 4.533 3.675 8.208 8.208 8.208s8.208-3.675 8.208-8.208v-268.84c0-4.937-4.015-8.953-8.952-8.953z" fill="#3b3868"/><g><path d="m98.045 102.363c0-4.746.908-9.288 2.543-13.472h-34.728c-4.912 5.263-9.601 10.736-14.038 16.416h46.224v-2.944z" fill="#2d2d59"/></g><path d="m22.828 152.636v206.728c2.459 5.276 5.099 10.449 7.914 15.513.098.003.195.015.294.015 4.533 0 8.208-3.675 8.208-8.208v-243.718c-6.129 9.46-11.617 19.372-16.416 29.67z" fill="#2d2d59"/><g><path d="m70.629 127.879c-5.492 0-9.88-4.478-9.88-9.88 0-6.261 5.764-10.899 11.806-9.682 4.734.961 7.953 5.061 7.953 9.682.001 5.269-4.245 9.88-9.879 9.88z" fill="#ff4155"/></g><g><path d="m98.045 127.879c-5.492 0-9.88-4.478-9.88-9.88 0-6.261 5.764-10.899 11.806-9.682 4.734.961 7.953 5.061 7.953 9.682.001 5.269-4.245 9.88-9.879 9.88z" fill="#ffdd40"/></g><g><path d="m125.461 127.879c-5.492 0-9.88-4.478-9.88-9.88 0-6.261 5.764-10.899 11.806-9.682 4.734.961 7.953 5.061 7.953 9.682.001 5.269-4.245 9.88-9.879 9.88z" fill="#89e56a"/></g><g><path d="m256 347.403c-4.533 0-8.208-3.675-8.208-8.208v-177.313c0-4.533 3.675-8.208 8.208-8.208s8.208 3.675 8.208 8.208v177.313c0 4.533-3.675 8.208-8.208 8.208z" fill="#8ae1ff"/></g><g><path d="m82.828 181.044h-15.782c-4.533 0-8.208-3.675-8.208-8.208s3.675-8.208 8.208-8.208h15.782c4.533 0 8.208 3.675 8.208 8.208s-3.675 8.208-8.208 8.208z" fill="#ffdd40"/></g><g><path d="m82.828 243.151h-15.782c-4.533 0-8.208-3.675-8.208-8.208s3.675-8.208 8.208-8.208h15.782c4.533 0 8.208 3.675 8.208 8.208s-3.675 8.208-8.208 8.208z" fill="#8ae1ff"/></g><g><path d="m82.828 212.098h-15.782c-4.533 0-8.208-3.675-8.208-8.208s3.675-8.208 8.208-8.208h15.782c4.533 0 8.208 3.675 8.208 8.208s-3.675 8.208-8.208 8.208z" fill="#b8f0ff"/></g><g><path d="m82.828 274.205h-15.782c-4.533 0-8.208-3.675-8.208-8.208s3.675-8.208 8.208-8.208h15.782c4.533 0 8.208 3.675 8.208 8.208s-3.675 8.208-8.208 8.208z" fill="#ffdd40"/></g><g><path d="m82.828 336.312h-15.782c-4.533 0-8.208-3.675-8.208-8.208s3.675-8.208 8.208-8.208h15.782c4.533 0 8.208 3.675 8.208 8.208s-3.675 8.208-8.208 8.208z" fill="#8ae1ff"/></g><g><path d="m82.828 305.259h-15.782c-4.533 0-8.208-3.675-8.208-8.208s3.675-8.208 8.208-8.208h15.782c4.533 0 8.208 3.675 8.208 8.208s-3.675 8.208-8.208 8.208z" fill="#b8f0ff"/></g><g><path d="m155.049 181.044h-42.86c-4.533 0-8.208-3.675-8.208-8.208s3.675-8.208 8.208-8.208h42.86c4.533 0 8.208 3.675 8.208 8.208s-3.675 8.208-8.208 8.208z" fill="#8ae1ff"/></g><g><path d="m170.616 274.205h-58.428c-4.533 0-8.208-3.675-8.208-8.208s3.675-8.208 8.208-8.208h58.428c4.533 0 8.208 3.675 8.208 8.208s-3.674 8.208-8.208 8.208z" fill="#b8f0ff"/></g><g><path d="m138.637 212.098h-26.449c-4.533 0-8.208-3.675-8.208-8.208s3.675-8.208 8.208-8.208h26.449c4.533 0 8.208 3.675 8.208 8.208s-3.675 8.208-8.208 8.208z" fill="#8ae1ff"/></g><g><path d="m199.92 181.044h-15.568c-4.533 0-8.208-3.675-8.208-8.208s3.675-8.208 8.208-8.208h15.568c4.533 0 8.208 3.675 8.208 8.208s-3.675 8.208-8.208 8.208z" fill="#b8f0ff"/></g><g><path d="m170.739 212.098h-5.837c-4.533 0-8.208-3.675-8.208-8.208s3.675-8.208 8.208-8.208h5.837c4.533 0 8.208 3.675 8.208 8.208s-3.674 8.208-8.208 8.208z" fill="#8ae1ff"/></g><g><path d="m170.739 243.151h-26.448c-4.533 0-8.208-3.675-8.208-8.208s3.675-8.208 8.208-8.208h26.448c4.533 0 8.208 3.675 8.208 8.208s-3.674 8.208-8.208 8.208z" fill="#ffdd40"/></g><g><path d="m118.025 243.151h-5.837c-4.533 0-8.208-3.675-8.208-8.208s3.675-8.208 8.208-8.208h5.837c4.533 0 8.208 3.675 8.208 8.208s-3.674 8.208-8.208 8.208z" fill="#b8f0ff"/></g><g><path d="m150.128 305.259h-5.837c-4.533 0-8.208-3.675-8.208-8.208s3.675-8.208 8.208-8.208h5.837c4.533 0 8.208 3.675 8.208 8.208s-3.675 8.208-8.208 8.208z" fill="#ffdd40"/></g><g><path d="m215.487 212.098h-17.752c-4.533 0-8.208-3.675-8.208-8.208s3.675-8.208 8.208-8.208h17.752c4.533 0 8.208 3.675 8.208 8.208s-3.675 8.208-8.208 8.208z" fill="#8ae1ff"/></g><g><path d="m194.876 336.312h-5.837c-4.533 0-8.208-3.675-8.208-8.208s3.675-8.208 8.208-8.208h5.837c4.533 0 8.208 3.675 8.208 8.208s-3.675 8.208-8.208 8.208z" fill="#b8f0ff"/></g><g><path d="m162.043 336.312h-17.752c-4.533 0-8.208-3.675-8.208-8.208s3.675-8.208 8.208-8.208h17.752c4.533 0 8.208 3.675 8.208 8.208s-3.674 8.208-8.208 8.208z" fill="#8ae1ff"/></g><g><path d="m322.607 289.11-34.363-30.371c-4.926-4.353-4.926-12.047 0-16.4l34.363-30.371c4.53-4.004 11.446-3.576 15.448.952 4.003 4.529 3.577 11.445-.952 15.448l-25.085 22.171 25.085 22.171c4.529 4.003 4.955 10.919.952 15.448-4.008 4.535-10.925 4.949-15.448.952z" fill="#e9efff"/></g><g><path d="m397.467 288.157c-4.003-4.529-3.577-11.445.952-15.448l25.085-22.171-25.085-22.171c-4.529-4.003-4.955-10.919-.952-15.448 4.002-4.529 10.918-4.955 15.448-.952l34.363 30.371c4.926 4.354 4.926 12.047 0 16.4l-34.363 30.371c-4.516 3.993-11.436 3.589-15.448-.952z" fill="#e9efff"/></g><g><path d="m354.207 291.294c-5.736-1.907-8.839-8.103-6.931-13.838l20.201-60.742c1.907-5.735 8.103-8.841 13.838-6.931 5.736 1.907 8.839 8.103 6.931 13.838l-20.201 60.742c-1.914 5.754-8.122 8.834-13.838 6.931z" fill="#e9efff"/></g><path d="m366.354 253.831c-4.283-1.424-7.265-4.95-8.212-9.048l-10.866 32.673c-1.908 5.736 1.195 11.931 6.931 13.838 5.717 1.903 11.925-1.177 13.838-6.931l11.208-33.703c-3.238 3.341-8.208 4.732-12.899 3.171z" fill="#d3dcfb"/><path d="m207.75 437.028v49.067c0 4.044-.513 8.017-1.469 11.848 12.613 2.003 25.542 3.056 38.718 3.056 20.65 0 40.698-2.567 59.856-7.378-.385-2.471-.606-4.982-.606-7.526v-49.067c-58.776 0-63.668 0-96.499 0z" fill="#bec8f7"/><path d="m238.427 488.815c0-16.819 13.635-30.454 30.454-30.454h35.369v-21.333c-58.777 0-63.669 0-96.499 0v49.067c0 4.044-.513 8.017-1.469 11.848 10.508 1.669 21.238 2.667 32.145 2.958z" fill="#a2b6f4"/><path d="m82.492 439.327h397.728c17.552 0 31.78-14.228 31.78-31.78v-43.162h-486.763c14.122 28.579 33.651 54.002 57.255 74.942z" fill="#e9efff"/><g><path d="m98.045 407.349v-42.964h-72.808c14.122 28.579 33.651 54.003 57.255 74.942h33.721c-10.861-6.539-18.168-18.446-18.168-31.978z" fill="#bec8f7"/></g><ellipse cx="256" cy="401.856" fill="#bec8f7" rx="15.518" ry="15.518" transform="matrix(.383 -.924 .924 .383 -213.233 484.585)"/><g fill="#d3dcfb"><path d="m288.244 258.739 34.363 30.371c4.523 3.997 11.439 3.583 15.448-.952 4.003-4.529 3.576-11.445-.952-15.448l-25.085-22.171c-18.247 3.058-16.292-14.812-16.292-14.812l-7.481 6.612c-4.926 4.353-4.927 12.046-.001 16.4z"/><path d="m439.372 265.726c-18.726 0-15.869-15.187-15.869-15.187l-25.085 22.171c-4.529 4.003-4.955 10.919-.952 15.448 4.012 4.541 10.932 4.944 15.448.952z"/></g></g></svg>